<?xml version="1.0" encoding="UTF-8"?>
<svg id="Layer_1" data-name="Layer 1" xmlns="http://www.w3.org/2000/svg" viewBox="0 0 310.31 441.89">
  <defs>
    <style>
      .cls-1 {
        fill: #ffb300;
      }

      .cls-2 {
        fill: #fbb216;
      }
    </style>
  </defs>
  <path class="cls-1" d="M25.92,441.01h0c-18.04-4.22-29.25-22.27-25.03-40.31L52.69,179.2c4.22-18.04,22.27-29.25,40.31-25.03h0c18.04,4.22,29.25,22.27,25.03,40.31l-51.8,221.49c-4.22,18.04-22.27,29.25-40.31,25.03Z"/>
  <path class="cls-1" d="M152.41,309.13h0c-18.04-4.22-29.25-22.27-25.03-40.31l43.93-187.82c4.22-18.04,22.27-29.25,40.31-25.03h0c18.04,4.22,29.25,22.27,25.03,40.31l-43.93,187.82c-4.22,18.04-22.27,29.25-40.31,25.03Z"/>
  <path class="cls-2" d="M226.26,394.92h0c-18.04-4.22-29.25-22.27-25.03-40.31l42.85-183.21c4.22-18.04,22.27-29.25,40.31-25.03h0c18.04,4.22,29.25,22.27,25.03,40.31l-42.85,183.21c-4.22,18.04-22.27,29.25-40.31,25.03Z"/>
  <path class="cls-2" d="M99.3,127.23h0c-18.04-4.22-29.25-22.27-25.03-40.31l14.27-61C92.76,7.88,110.81-3.33,128.85,.89h0c18.04,4.22,29.25,22.27,25.03,40.31l-14.27,61c-4.22,18.04-22.27,29.25-40.31,25.03Z"/>
  <path class="cls-2" d="M124.19,429.75h0c-18.04-4.22-29.25-22.27-25.03-40.31l5.35-22.86c4.22-18.04,22.27-29.25,40.31-25.03h0c18.04,4.22,29.25,22.27,25.03,40.31l-5.35,22.86c-4.22,18.04-22.27,29.25-40.31,25.03Z"/>
</svg>